PathFileType	4	(X/Y/Z)	S01_0014_Gait_markers.trc
DataRate	CameraRate	NumFrames	NumMarkers	Units	OrigDataRate	OrigDataStartFrame	OrigNumFrames
250.000000	250.000000	4	54	mm	250.000000	91	367
Frame#	Time	HEAD_ANT			R_HEAD			L_HEAD			C7			R_BACK			L_BACK			STERNUM			R_ACROMION			R_HUM_PROX			R_HUM_ANT			R_HUM_POST			R_ELBOW_LAT			R_ELBOW_MED			R_FOREARM			R_WIRST_LAT			R_WRITS_MED			R_HAND			L_ACROMION			L_HUM_PROX			L_HUM_ANT			L_HUM_POST			L_ELBOW_LAT			L_ELBOW_MED			L_FOREARM			L_WRIST_LAT			L_WIRST_MED			L_HAND			R_ILIAC			SACRUM			L_ILIAC			R_GTROCH			R_THIGH__1			R_THIGH_2			R_THIGH_3			R_THIGH_4			R_SHANK_1			R_SHANK_2			R_SHANK_3			R_SHANK_4			R_HEEL			R_FOOT_LAT			R_FOOT_MED			L_GTROCH			L_THIGH_1			L_THIGH_2			L_THIGH_3			L_THIGH_4			L_SHANK_1			L_SHANK_2			L_SHANK_3			L_SHANK_4			L_HEEL			L_FOOT_LAT			L_FOOT_MED			
		X1	Y1	Z1	X2	Y2	Z2	X3	Y3	Z3	X4	Y4	Z4	X5	Y5	Z5	X6	Y6	Z6	X7	Y7	Z7	X8	Y8	Z8	X9	Y9	Z9	X10	Y10	Z10	X11	Y11	Z11	X12	Y12	Z12	X13	Y13	Z13	X14	Y14	Z14	X15	Y15	Z15	X16	Y16	Z16	X17	Y17	Z17	X18	Y18	Z18	X19	Y19	Z19	X20	Y20	Z20	X21	Y21	Z21	X22	Y22	Z22	X23	Y23	Z23	X24	Y24	Z24	X25	Y25	Z25	X26	Y26	Z26	X27	Y27	Z27	X28	Y28	Z28	X29	Y29	Z29	X30	Y30	Z30	X31	Y31	Z31	X32	Y32	Z32	X33	Y33	Z33	X34	Y34	Z34	X35	Y35	Z35	X36	Y36	Z36	X37	Y37	Z37	X38	Y38	Z38	X39	Y39	Z39	X40	Y40	Z40	X41	Y41	Z41	X42	Y42	Z42	X43	Y43	Z43	X44	Y44	Z44	X45	Y45	Z45	X46	Y46	Z46	X47	Y47	Z47	X48	Y48	Z48	X49	Y49	Z49	X50	Y50	Z50	X51	Y51	Z51	X52	Y52	Z52	X53	Y53	Z53	X54	Y54	Z54	

92	0.364	501.0269470214844	1732.690795898438	-267.0120239257809	442.8288269042969	1680.711059570312	-190.7848205566403	440.9718627929688	1686.1826171875	-338.1157226562496	305.4920959472656	1512.611328125	-273.3515014648434	235.6415405273438	1312.446044921875	-215.3517150878903	238.4095153808594	1319.91650390625	-354.092346191406	483.9104614257812	1351.72509765625	-271.669494628906	379.0701904296875	1458.184326171875	-100.3904190063473	337.2418212890625	1295.9091796875	-15.78948307037325	397.3464965820312	1209.619750976562	-11.36818599700901	275.7255554199219	1213.076904296875	-7.526836872100561	319.6150512695312	1106.7744140625	-2.065448760986083	300.8090209960938	1104.17236328125	-82.00050354003882	419.3928527832031	922.2062377929688	-0.6023561358449796	458.6604919433594	857.9153442382812	-42.48961257934551	390.4815673828125	833.2080688476562	-6.225339412689024	461.1716003417969	769.48095703125	12.78725910186785	391.1463928222656	1474.0380859375	-439.6517944335934	375.0802307128906	1310.665161132813	-540.4603271484372	436.42236328125	1229.39013671875	-537.1215209960935	318.0862426757812	1234.658569335938	-572.3631591796873	376.6089782714844	1129.816040039063	-579.7796630859373	319.3630981445312	1122.272827148438	-526.8083496093748	481.0279846191406	952.9990844726564	-558.230529785156	503.039306640625	890.1447753906251	-505.0127563476561	468.2298583984375	872.1573486328126	-573.8962402343748	541.262451171875	811.9695434570314	-551.491760253906	387.5907897949219	1063.424438476562	-112.3333892822263	257.4231567382812	1037.884765625	-284.2632141113279	377.0006713867188	1055.448852539062	-459.8245849609373	350.3018188476562	919.3298950195312	-99.64031219482402	436.2297668457031	643.1859130859375	-130.2608642578124	489.0840148925781	668.9090576171875	-129.4461212158202	508.7881469726562	570.4790649414062	-168.9422302246093	446.0296325683594	564.8624877929688	-153.6685638427733	437.6552429199219	341.9500427246094	-152.6369018554687	489.3298950195312	318.8606262207032	-174.3882446289062	478.6211853027344	235.2573242187501	-193.1161041259765	417.3110656738281	244.53515625	-175.3062286376953	352.2840576171875	43.3537101745606	-258.9653015136719	512.9744262695312	20.30817222595219	-169.7636413574219	571.6362915039062	28.29906845092779	-272.8946838378906	342.0182800292969	940.3040161132814	-463.9012451171873	453.6080017089844	654.8907470703126	-467.6387634277342	398.6192016601562	673.5839843750001	-476.3393554687498	391.4331665039062	568.2771606445314	-457.558380126953	454.6474609375	573.4380493164064	-455.3928222656249	273.3066101074219	361.8635864257814	-454.4075317382812	221.7088775634766	394.1551818847657	-452.0440063476561	153.1120300292969	341.6263427734376	-435.0341186523437	197.6308898925781	294.9120483398439	-433.3148803710937	-3.543157577514648	265.4532165527344	-358.7084960937499	41.73566055297852	103.5019989013673	-437.3943481445312	70.53211212158203	76.13019561767585	-344.0120239257812	
93	0.368	506.5355224609375	1733.469970703125	-267.153656005859	448.4459228515625	1681.602661132812	-190.7856597900387	446.4638671875	1687.0751953125	-338.252532958984	311.058837890625	1513.314086914062	-273.3182373046872	241.0586853027344	1313.36279296875	-215.0074615478513	243.4439544677734	1320.418090820312	-353.5992736816403	489.0765991210938	1352.628051757812	-271.7827453613278	384.4793090820312	1459.094604492188	-100.5549240112301	343.2215576171875	1296.752685546875	-15.67183399200411	403.5444641113281	1210.733032226562	-11.55429744720432	281.8794860839844	1213.836669921875	-6.907864570617407	326.3860778808594	1107.903564453125	-1.406758785247557	306.5789184570312	1105.16064453125	-81.38823699951148	426.2624816894531	923.3572387695312	-0.7205885052678919	465.3731689453125	859.1796264648438	-42.81132888793926	397.4844360351562	834.2343139648438	-5.999566555023008	468.5110473632812	770.8936767578125	12.64044475555437	395.8171691894531	1474.991333007812	-439.9028015136715	379.885986328125	1311.355224609375	-540.2124633789059	441.4106750488281	1230.216674804688	-536.8270263671873	322.7622680664062	1235.269897460938	-572.2683105468748	380.6346740722656	1130.62158203125	-579.6674804687498	324.0563659667969	1123.209716796875	-526.7132568359373	485.5151977539062	953.6821289062501	-558.5824584960935	507.5549011230469	890.6608276367189	-505.2936401367186	472.8500671386719	872.9376831054689	-574.5244140624998	545.7128295898438	812.6149902343751	-552.061340332031	393.1832580566406	1064.779052734375	-112.6577301025388	262.7212219238281	1038.82958984375	-283.833068847656	381.8968811035156	1056.622680664062	-459.4838867187498	355.1827087402344	920.0604248046875	-99.71790313720683	438.9485778808594	643.4930419921875	-130.1150054931639	492.426025390625	668.8946533203125	-128.4973144531249	511.0427856445312	570.2609252929688	-168.7061462402343	448.1466369628906	565.0509033203125	-153.5324249267577	439.0089416503906	341.9692687988282	-152.4975128173827	490.4825744628906	318.7384643554688	-174.5304107666015	479.4481811523438	235.2042999267579	-193.2347106933593	418.2661743164062	244.6687316894532	-175.1839447021484	352.3857116699219	43.51783752441412	-259.0227355957031	512.9838256835938	20.28790092468266	-169.7440032958984	571.70263671875	28.29035377502447	-272.8260192871094	347.2505187988281	941.2928466796876	-463.6395874023435	462.1154479980469	656.8668212890626	-467.7862854003905	406.6023559570312	674.4395141601564	-476.3831481933592	400.4156799316406	569.3441772460939	-457.6131591796874	463.6425476074219	575.0585937500001	-455.2568359374999	284.0107727050781	362.626922607422	-454.1735229492187	232.1918792724609	394.4654541015626	-451.629180908203	163.8766021728516	341.7625122070314	-434.8094787597656	208.6711730957031	295.0950622558595	-433.4480590820312	7.332839012145996	263.7168273925782	-359.1788330078124	55.62171173095703	102.2558822631837	-438.2515563964844	85.36965942382812	75.91689300537116	-345.5440368652344	
94	0.372	512.0216674804688	1734.348266601562	-267.2742309570309	453.8428649902344	1682.483154296875	-190.8900299072262	451.9803466796875	1687.958251953125	-338.333343505859	315.9127502441406	1514.560180664062	-273.2155761718747	247.5909118652344	1314.085815429688	-214.7525634765622	248.5855407714844	1321.260498046875	-353.1102905273435	494.1485900878906	1353.49267578125	-272.4544372558591	389.9873962402344	1460.0654296875	-100.538421630859	349.2655944824219	1297.778076171875	-15.33457279205293	409.4543151855469	1211.539428710938	-11.45690059661838	287.9147338867188	1214.833984375	-6.20995569229099	332.5112609863281	1108.7353515625	-1.040158271789305	312.4340209960938	1105.9970703125	-80.78961944580054	433.0989074707031	924.7062377929688	-0.7498452663419578	472.5904541015625	860.5873413085938	-42.60399627685528	404.5113525390625	835.3729858398438	-5.841979026794248	475.8626098632812	772.274658203125	12.29499435424822	400.6678466796875	1475.843994140625	-439.8695068359372	384.5729370117188	1312.20458984375	-540.3368530273434	445.8561706542969	1230.981811523438	-536.9962158203123	327.5660705566406	1235.977294921875	-571.905334472656	384.8238525390625	1131.584838867188	-579.732727050781	328.9874267578125	1123.884521484375	-526.1712646484373	490.2173461914062	954.4888305664064	-558.9066162109373	512.2320556640625	891.2596435546876	-506.0476989746092	477.1832275390625	873.6995849609376	-574.800354003906	550.2207641601562	813.2224731445314	-552.6224365234373	398.9269409179688	1066.164672851562	-112.8515472412107	267.8843383789062	1039.624267578125	-283.5992431640623	386.731201171875	1057.740844726562	-459.2680969238279	360.0389709472656	920.6810302734375	-99.51599884033183	441.6221618652344	643.7269897460938	-130.2390136718749	494.7491760253906	669.007080078125	-129.3375091552733	513.0784301757812	570.046142578125	-168.6407775878905	449.9595642089844	565.1823120117188	-153.6441040039061	440.1705932617188	341.9730224609376	-152.3516235351562	491.4902954101562	318.6882629394532	-174.6077880859374	480.2457275390625	235.1560821533204	-193.2562866210937	419.0915832519531	244.7544250488282	-175.1152648925781	352.5125122070312	43.6452255249024	-259.1152648925781	513.13427734375	20.28866958618168	-170.1209411621094	571.8140258789062	28.27850341796881	-272.7505798339844	352.513916015625	942.2808837890626	-463.5281982421873	470.3053283691406	658.5292358398439	-467.7716369628905	415.052490234375	676.0354003906251	-476.6473083496092	409.7732238769531	570.5153808593751	-457.8597412109374	472.7745971679688	576.6949462890626	-455.5388183593749	294.6513061523438	363.277557373047	-454.1057434082031	242.5948181152344	395.0958557128907	-451.0346069335936	174.7242126464844	341.505340576172	-434.7139892578124	219.7013244628906	295.1639404296876	-433.4219665527343	18.12114715576172	262.1756286621094	-358.5996093749999	69.68785858154297	102.2686233520509	-438.2941284179688	100.2272644042969	75.29326629638679	-345.9855041503906	
95	0.376	517.4010620117188	1734.909301757812	-267.3372192382809	459.1670532226562	1683.12744140625	-191.1194610595699	457.2469787597656	1688.623657226562	-338.5778198242184	321.1706237792969	1515.342163085938	-273.2135620117184	252.9755249023438	1314.936889648438	-214.3066864013669	253.5606231689453	1321.90380859375	-352.5668640136716	499.3397827148438	1354.525634765625	-272.4323730468747	395.4868774414062	1461.028564453125	-100.7130203247067	355.1979064941406	1298.700561523438	-15.05695915222139	415.7803344726562	1212.63916015625	-11.58289432525608	294.0806884765625	1215.636352539062	-5.59185791015598	340.1008605957031	1109.74462890625	-0.4753344357011238	315.7055969238281	1107.920288085938	-79.77890777587866	439.8864440917969	925.9597778320312	-0.8093235492704243	478.8983459472656	861.8468627929688	-43.36847305297832	411.6983642578125	836.5162353515625	-5.544548034667783	483.1708984375	773.622314453125	12.11758232116716	405.4343566894531	1476.69140625	-439.9526367187497	389.2559509277344	1312.95068359375	-540.3217163085934	450.8237915039062	1231.79931640625	-536.9952392578123	332.1312255859375	1236.805786132813	-571.7536010742185	389.5839233398438	1132.174926757813	-579.5861206054685	333.6230773925781	1124.699462890625	-525.935607910156	494.6801452636719	955.1624755859376	-559.170227050781	516.9096069335938	891.7709960937501	-506.3262634277342	481.8057250976562	874.4242553710939	-575.2009277343748	554.5751342773438	814.0590209960939	-553.3339233398435	404.5317077636719	1067.441650390625	-112.9957656860349	273.1077880859375	1040.493774414062	-283.1673583984373	392.4434814453125	1059.098022460938	-458.740539550781	364.7858581542969	921.3905029296875	-99.46341705322246	444.2775268554688	644.0396728515625	-130.1294708251952	498.118896484375	668.9425048828125	-128.2953643798827	515.1178588867188	569.659912109375	-168.4461059570311	451.9818115234375	565.4088134765625	-153.5343627929686	441.1726684570312	342.1001281738282	-152.3394165039062	492.3816833496094	318.6678161621094	-174.6762390136718	480.9420776367188	235.0332031250001	-193.2845306396484	419.7623901367188	244.8862457275391	-175.0884399414062	352.6187133789062	43.86678695678717	-259.1542053222656	513.146240234375	20.2872581481934	-170.0952453613281	571.8997802734375	28.28791427612311	-272.7113647460938	357.8205871582031	943.2739257812501	-463.5087890624998	479.3414306640625	660.0468139648439	-468.0806274414061	423.2299194335938	677.0080566406251	-476.8777770996092	418.173583984375	571.9740600585939	-457.8839721679686	481.707275390625	578.3550415039064	-455.2543334960936	305.25244140625	364.1076660156251	-454.1047668457031	253.0915374755859	394.9906311035157	-450.4774169921874	185.5843658447266	341.026824951172	-434.1990661621093	231.1992492675781	294.8038940429689	-433.1742248535156	29.12169647216797	260.3510131835938	-359.0550537109374	84.12669372558594	100.6677398681642	-439.0263061523438	115.330924987793	74.79536437988288	-346.2831115722656	
